<svg xmlns="http://www.w3.org/2000/svg" viewBox="0 0 200 200" width="200" height="200">
  <defs>
    <linearGradient id="busGradient" x1="0%" y1="0%" x2="100%" y2="100%">
      <stop offset="0%" style="stop-color:#4F46E5;stop-opacity:1" />
      <stop offset="100%" style="stop-color:#7C3AED;stop-opacity:1" />
    </linearGradient>
    <linearGradient id="accentGradient" x1="0%" y1="0%" x2="100%" y2="100%">
      <stop offset="0%" style="stop-color:#10B981;stop-opacity:1" />
      <stop offset="100%" style="stop-color:#059669;stop-opacity:1" />
    </linearGradient>
  </defs>
  
  <!-- Background Circle -->
  <circle cx="100" cy="100" r="95" fill="url(#busGradient)" opacity="0.1"/>
  
  <!-- Bus Body -->
  <rect x="50" y="65" width="100" height="70" rx="12" fill="url(#busGradient)"/>
  
  <!-- Bus Windows -->
  <rect x="60" y="75" width="20" height="20" rx="3" fill="#E0E7FF"/>
  <rect x="85" y="75" width="20" height="20" rx="3" fill="#E0E7FF"/>
  <rect x="110" y="75" width="20" height="20" rx="3" fill="#E0E7FF"/>
  
  <!-- Bus Front Light -->
  <circle cx="145" cy="80" r="4" fill="#FCD34D"/>
  
  <!-- Bus Door -->
  <rect x="60" y="100" width="15" height="25" rx="2" fill="#C7D2FE" opacity="0.6"/>
  
  <!-- Bus Wheels -->
  <circle cx="70" cy="135" r="12" fill="#1F2937"/>
  <circle cx="70" cy="135" r="6" fill="#6B7280"/>
  <circle cx="130" cy="135" r="12" fill="#1F2937"/>
  <circle cx="130" cy="135" r="6" fill="#6B7280"/>
  
  <!-- GPS Tracking Symbol (no cross) -->
  <circle cx="100" cy="45" r="15" fill="url(#accentGradient)"/>
  <circle cx="100" cy="45" r="5" fill="white"/>
  <circle cx="100" cy="45" r="9" fill="none" stroke="white" stroke-width="2" opacity="0.5"/>
  
  <!-- Motion Lines -->
  <path d="M35 80 L45 80 M30 90 L45 90 M35 100 L45 100" stroke="url(#accentGradient)" stroke-width="2" stroke-linecap="round" opacity="0.6"/>
</svg>
